<?xml version="1.0" encoding="UTF-8"?>
<svg xmlns="http://www.w3.org/2000/svg" xmlns:xlink="http://www.w3.org/1999/xlink" width="px" height="18px" viewBox="0 0 18 18" version="1.1">
<g id="surface1">
<path style=" stroke:none;fill-rule:nonzero;fill:rgb(0%,0%,0%);fill-opacity:1;" d="M 16.148438 5.332031 C 16.160156 5.492188 16.160156 5.652344 16.160156 5.8125 C 16.160156 10.691406 12.449219 16.308594 5.664062 16.308594 C 3.574219 16.308594 1.632812 15.703125 0 14.652344 C 0.296875 14.6875 0.582031 14.699219 0.890625 14.699219 C 2.617188 14.699219 4.203125 14.117188 5.472656 13.125 C 3.847656 13.089844 2.488281 12.027344 2.023438 10.566406 C 2.25 10.597656 2.476562 10.621094 2.71875 10.621094 C 3.050781 10.621094 3.378906 10.574219 3.6875 10.496094 C 2 10.152344 0.730469 8.667969 0.730469 6.875 L 0.730469 6.828125 C 1.222656 7.105469 1.792969 7.277344 2.398438 7.296875 C 1.40625 6.636719 0.753906 5.503906 0.753906 4.226562 C 0.753906 3.539062 0.9375 2.914062 1.257812 2.363281 C 3.074219 4.601562 5.800781 6.066406 8.863281 6.226562 C 8.804688 5.949219 8.773438 5.664062 8.773438 5.378906 C 8.773438 3.347656 10.417969 1.691406 12.460938 1.691406 C 13.523438 1.691406 14.480469 2.136719 15.15625 2.855469 C 15.988281 2.695312 16.789062 2.386719 17.496094 1.964844 C 17.222656 2.820312 16.640625 3.539062 15.875 3.996094 C 16.617188 3.917969 17.335938 3.710938 18 3.425781 C 17.496094 4.15625 16.871094 4.808594 16.148438 5.332031 Z M 16.148438 5.332031 "/>
</g>
</svg>
